<?xml version="1.0" encoding="UTF-8" standalone="no"?>
<!-- Created with Inkscape (http://www.inkscape.org/) -->

<svg
   width="67.733345mm"
   height="67.73333mm"
   viewBox="0 0 67.733345 67.73333"
   version="1.1"
   id="svg328"
   inkscape:version="1.2.2 (b0a8486541, 2022-12-01)"
   sodipodi:docname="favicon.svg"
   xmlns:inkscape="http://www.inkscape.org/namespaces/inkscape"
   xmlns:sodipodi="http://sodipodi.sourceforge.net/DTD/sodipodi-0.dtd"
   xmlns="http://www.w3.org/2000/svg"
   xmlns:svg="http://www.w3.org/2000/svg">
  <sodipodi:namedview
     id="namedview330"
     pagecolor="#ffffff"
     bordercolor="#666666"
     borderopacity="1.0"
     inkscape:showpageshadow="2"
     inkscape:pageopacity="0.0"
     inkscape:pagecheckerboard="0"
     inkscape:deskcolor="#d1d1d1"
     inkscape:document-units="mm"
     showgrid="false"
     inkscape:zoom="2.0913616"
     inkscape:cx="356.22726"
     inkscape:cy="580.00492"
     inkscape:window-width="1872"
     inkscape:window-height="1006"
     inkscape:window-x="48"
     inkscape:window-y="0"
     inkscape:window-maximized="1"
     inkscape:current-layer="layer1" />
  <defs
     id="defs325" />
  <g
     inkscape:label="Layer 1"
     inkscape:groupmode="layer"
     id="layer1"
     transform="translate(-71.133325,-114.63334)">
    <rect
       style="fill:#000000;stroke-width:0.0351896;stroke-linecap:round;stroke-linejoin:bevel"
       id="rect568"
       width="67.73333"
       height="67.73333"
       x="71.133331"
       y="114.63334"
       rx="6.3912582"
       ry="6.3912582" />
    <g
       id="Group_2_copy_00000032645750353151962030000009563675881878569899_"
       inkscape:label="Logo_Image"
       transform="matrix(1.7861358,0,0,1.7353919,-9.0179788,-50.613791)">
      <g
         id="Shape_1">
        <g
           id="g8">
          <path
             class="st0"
             d="m 79.48,114.6 c 0,-1.28 -0.17,-2.51 -0.46,-3.7 -0.19,0.63 -0.69,1.26 -1.52,1.83 -1.07,0.74 -1.37,1.14 -2.59,1.53 0.03,0.11 0.03,0.29 0.1,0.33 1.42,0.9 0.55,1.28 -0.36,1.66 0.69,1.09 1.53,2.03 2.73,2.81 -0.72,0.38 -1.37,0.31 -1.99,0.2 -0.69,-0.12 -0.91,0.12 -0.79,0.78 0.23,1.21 0.46,2.42 0.7,3.63 0.09,0.43 0.11,0.96 0.06,1.47 2.56,-2.76 4.12,-6.46 4.12,-10.54 z m -1.17,-5.92 c -1.01,-2.47 -2.64,-4.62 -4.69,-6.27 -0.15,0.24 -0.35,0.44 -0.62,0.53 -0.67,0.21 -1.21,0.69 -2.2,0.18 -1.51,-0.77 -1.97,-0.3 -1.25,0.88 0.63,1.04 0.2,0.52 1.34,1.99 0.47,0.61 0.99,0.89 1.79,0.85 1.88,-0.09 2.8,0.16 4.5,1.03 0.47,0.24 0.83,0.51 1.13,0.81 z m -25.74,6.16 c 0.12,0.01 0.21,0.01 0.28,0.02 -0.13,-0.06 -0.26,-0.12 -0.32,-0.2 -0.12,-0.26 -0.2,-0.55 -0.55,-0.6 -1.17,-0.19 -1.29,-0.71 -2.24,-1.38 -0.61,-0.43 -0.99,-0.9 -1.19,-1.39 -0.23,1.07 -0.36,2.18 -0.36,3.31 0,4.03 1.53,7.69 4.03,10.46 -0.11,-0.81 -0.02,-1.6 0.05,-2.42 0.13,-0.77 0.24,-1.54 0.4,-2.3 0.17,-0.82 0.06,-1.29 -0.96,-1.04 -0.55,0.13 -1.14,0.13 -1.77,-0.17 1.02,-0.95 2.26,-1.67 2.61,-3.1 -0.35,-0.41 -0.65,-0.81 0.02,-1.19 z m -3.22,-6.13 c 0.13,-0.12 0.26,-0.24 0.42,-0.35 0.69,-0.48 0.58,-0.78 1.38,-1.02 0.8,-0.24 1.64,-0.5 2.49,-0.5 0.5,-0.01 1.01,0.03 1.51,-0.03 0.75,-0.09 1.16,-0.48 1.47,-1.15 0.21,-0.45 0.37,-0.93 0.55,-1.4 0.54,-1.48 1.04,-2.97 1.59,-4.44 -4.28,1.47 -7.71,4.73 -9.41,8.89 z"
             id="path6"
             style="fill:#ffffff" />
        </g>
      </g>
      <g
         id="Shape_1_copy_2">
        <g
           id="g13">
          <path
             class="st0"
             d="m 76.39,108.32 c -1.5,-0.77 -3.12,-0.99 -4.78,-0.91 -0.7,0.03 -1.16,-0.22 -1.57,-0.75 -1,-1.3 -1.57,-2.78 -1.99,-4.34 -0.25,-0.93 0.02,-1.21 0.98,-0.92 0.72,0.22 1.41,0.55 2.11,0.84 0.62,0.26 1.13,0.07 1.46,-0.46 0.34,-0.56 0.26,-1.1 -0.31,-1.53 -0.75,-0.56 -1.22,-1.34 -1.64,-2.15 -1.1,-2.14 -1.93,-2.49 -4.21,-1.75 -0.62,0.2 -1.25,0.37 -1.79,0.76 -0.58,0.06 -1.08,0.35 -1.6,0.58 -0.35,0.07 -0.69,0.14 -1.04,0.22 -1.39,0.59 -2.07,1.79 -2.57,3.11 -0.52,1.36 -0.98,2.75 -1.48,4.12 -0.15,0.41 -0.3,0.83 -0.48,1.23 -0.27,0.59 -0.63,0.93 -1.29,1.01 -0.44,0.05 -0.89,0.02 -1.33,0.03 -0.75,0.01 -1.49,0.23 -2.2,0.44 -0.71,0.21 -1.41,0.47 -2.02,0.9 -1.63,1.13 -1.65,2.66 -0.02,3.8 0.84,0.59 1.75,1.05 2.78,1.22 0.31,0.04 0.38,0.3 0.48,0.53 0.18,0.22 0.45,0.21 0.69,0.29 0.63,0.22 0.9,0.5 0.25,1 0.09,-0.65 -0.12,-1.09 -0.9,-1.13 -0.59,0.34 -0.33,0.69 -0.02,1.04 -0.32,1.26 -2.16,2.96 -2.16,2.96 0,0 0.94,0.04 1.42,-0.08 0.89,-0.22 0.99,0.19 0.84,0.92 -0.14,0.67 -0.23,1.35 -0.35,2.03 -0.78,1.9 0.05,3.4 0.05,3.4 0,0 0.49,-0.77 0.7,-1.1 0.06,0.21 0.13,0.42 0.19,0.62 0.18,1.75 0.84,3.26 2.15,4.45 0.41,-0.22 0.08,-0.67 0.48,-0.91 1.46,2.15 3.41,3.81 5.46,5.38 0.2,0.15 0.35,0.39 0.66,0.26 0.89,0.25 1.25,-0.57 1.95,-0.64 1.74,-1.58 3.61,-3.05 4.89,-5.09 0.3,0.32 0.02,0.74 0.36,0.95 0.42,-0.14 0.62,-0.5 0.86,-0.81 0.8,-1.04 1.19,-2.23 1.38,-3.51 0.04,-0.25 -0.04,-0.78 0.48,-0.3 0.08,0.2 0.09,0.48 0.33,0.51 0.29,0.04 0.29,-0.28 0.35,-0.46 0.21,-0.6 0.14,-1.21 0.02,-1.82 -0.21,-1.07 -0.41,-2.14 -0.61,-3.2 -0.11,-0.58 0.08,-0.8 0.69,-0.69 0.55,0.1 1.12,0.16 1.76,-0.18 -1.05,-0.69 -1.8,-1.52 -2.4,-2.48 0.8,-0.33 1.58,-0.67 0.32,-1.46 -0.07,-0.04 -0.06,-0.19 -0.09,-0.29 1.07,-0.35 2.14,-0.7 3.09,-1.35 1.97,-1.37 1.86,-3.17 -0.33,-4.29 z m -25.27,3.55 c -1.21,-0.93 -1.09,-1.68 0.31,-2.52 -0.38,0.89 -0.76,1.56 -0.31,2.52 z m 3.43,9.82 c -0.07,-0.02 -0.14,-0.04 -0.21,-0.05 0.28,-0.75 0.54,-1.51 0.66,-2.31 -0.12,-0.78 0.18,-3.23 -1.7,-1.56 0.32,-0.62 1.05,-1.48 1.24,-1.85 0.08,0 0.17,0 0.25,0.01 -0.13,0.58 0.6,1.45 0.44,2.19 0.03,0.2 0.21,0.9 0.04,1.23 0.13,0.15 -0.02,0.39 -0.03,0.58 -0.11,0.65 -0.09,1.33 -0.69,1.76 z m 1.61,5.08 c -0.55,-0.64 -0.6,-1.52 -0.91,-2.29 0.05,-0.55 -0.16,-1.13 0.27,-1.82 0.19,0.71 0.09,1.33 0.39,1.84 0.3,0.72 1.08,1.37 0.25,2.27 z M 72.65,117 c -0.32,-0.11 -0.27,0.2 -0.3,0.41 -0.17,1.02 -0.1,2.01 0.26,2.99 0.2,0.54 0.46,1.07 0.33,1.68 -0.42,-0.3 -0.78,-0.76 -1.52,-0.55 1.12,1.85 0.59,3.56 -0.27,5.36 -0.43,-0.81 -0.31,-1.75 -1.16,-2.36 -0.07,2.5 -1.61,4.06 -3.17,5.58 -1.01,0.98 -2.07,1.92 -3.27,2.7 -0.73,-0.88 -1.73,-1.42 -2.58,-2.16 -1.46,-1.28 -2.84,-2.6 -3.46,-4.53 -0.08,-0.24 -0.13,-0.41 0.1,-0.56 0.89,1.48 1.72,3.01 3.19,4.04 0.35,0.24 0.69,0.73 1.1,0.54 0.38,-0.18 0.04,-0.72 0.11,-1.09 0.03,-0.14 0.01,-0.29 0.01,-0.43 -0.05,-0.87 0.32,-0.78 0.83,-0.36 0.22,0.23 0.44,0.47 0.66,0.7 0.04,0.34 0.07,0.68 0.12,1.17 0.43,-0.5 0.64,-0.91 0.55,-1.45 0.1,-0.4 0.02,-0.78 -0.13,-1.15 -0.37,-0.89 -0.64,-1.81 -0.54,-2.8 0.02,-0.07 0.03,-0.13 0.04,-0.2 1.83,-0.68 1.83,-0.68 2.28,0.76 0.95,-1.69 0.29,-3.02 -1.57,-3.23 -0.45,-0.05 -0.96,0.13 -1.36,-0.23 -1.49,-0.2 -2.51,0.38 -3.13,1.78 0,0.68 0,1.36 0,2.33 -0.37,-1.03 -0.53,-1.82 -0.26,-2.63 0.01,-0.06 0.03,-0.12 0.05,-0.18 0.39,-1.26 1.1,-1.77 2.38,-1.75 1.34,0.02 2.68,0.01 4.02,0.01 1.9,0.55 2.29,1.69 1.63,4.75 0.72,-0.52 1.2,-1.49 1.39,-3.18 0.1,-0.88 0.32,-1.61 1.03,-2.18 0.51,-0.4 0.81,-1.03 0.72,-1.64 -0.17,-1.1 0.29,-2.14 0.15,-3.23 -0.07,-0.52 0.3,-0.87 0.58,-1.24 0.47,-0.13 0.91,-0.42 1.43,-0.17 0.14,0.41 -1.05,0.22 -0.38,0.85 0.18,0.35 0.39,0.7 0.54,1.06 0.11,0.32 0.58,0.91 -0.4,0.59 z m -11.21,-0.53 -2.17,0.26 -0.18,-0.88 z m -1.29,-1.86 h 1.76 v 0.53 z m -0.26,3.09 c 0.55,-0.01 0.22,1.07 1.06,0.7 -1.2,1.32 -1.7,1.17 -2.75,-0.63 0.58,-0.16 1.14,-0.06 1.69,-0.07 z m 2.88,5.22 c -0.1,0.03 -0.22,-0.02 -0.14,-0.16 0.05,-0.09 0.16,-0.14 0.24,-0.21 0.54,0.03 1.08,0.05 1.62,0.11 0.18,0.02 0.5,-0.01 0.5,0.28 0.01,0.28 -0.21,0.43 -0.5,0.47 -0.39,0.05 -0.78,0.12 -1.17,0.18 -0.07,-0.32 0.22,-0.93 -0.55,-0.67 z m 0.04,-3.38 c 0.26,-0.1 -0.12,-0.47 -0.21,-0.7 -0.38,-1.07 0.1,-1.9 0.75,-2.68 0.07,-0.15 0.14,-0.22 0.21,-0.26 -0.07,-0.17 -0.21,-0.28 -0.36,-0.39 0.21,0.03 0.38,0.12 0.45,0.36 0.12,0 0.25,0.09 0.38,0.26 0.5,0.17 0.65,0.64 0.92,1.02 0.29,0.41 1.74,0.37 2.21,0.45 0,-0.01 0.01,-0.01 0.01,-0.02 -0.2,-0.08 -1.06,-0.33 -1.06,-0.33 0,0 0.71,-0.17 1.18,-0.19 0,-0.07 -0.03,-0.15 -0.04,-0.23 -0.57,-0.35 -1.66,-0.47 -1.66,-0.47 0,0 1.15,-0.6 2.11,-0.35 -0.09,-0.02 0.1,0.79 0.35,0.7 0.98,-0.35 0.69,-0.87 0.32,-1.17 -0.07,-0.06 -0.11,-0.15 -0.38,-0.5 0.76,0.47 1.1,-0.74 1.68,0.06 0.52,0.73 0.38,1.87 -0.29,2.44 -0.46,0.39 -0.71,0.81 -0.54,1.42 0.29,0.04 0.34,-0.23 0.49,-0.36 0.24,-0.21 0.49,-0.16 0.69,0.01 0.19,0.16 0.13,0.42 0,0.6 -0.51,0.7 -1.03,1.41 -1.58,2.08 -0.27,0.33 -0.66,0.17 -0.89,-0.01 -0.42,-0.31 -0.89,-0.42 -1.37,-0.55 -0.02,-0.38 -0.22,-0.83 0.16,-1.08 0.22,-0.15 0.4,0.24 0.62,0.36 -0.3,-1.26 -1.35,-1.62 -2.34,-0.79 0.11,0.35 0.44,0.1 0.64,0.24 0.31,0.21 0.31,0.7 0.11,0.67 -0.7,-0.09 -1.11,0.26 -1.9,0.39 -1.44,0.23 -1.85,-0.48 -0.68,-0.29 0.12,0.03 -0.23,-0.58 0.02,-0.69 z m -0.38,-4.05 v -0.88 h 1.76 v 0.88 c 0,0 -0.46,-0.18 -0.9,-0.18 -0.44,0.01 -0.86,0.18 -0.86,0.18 z m 2.28,-0.35 v -0.53 h 1.76 z m 10.51,-3.25 c -1.36,0.76 -2.88,1.04 -4.38,1.32 -2.62,0.49 -5.29,0.48 -7.94,0.68 -0.36,0.03 -1.13,0.03 -1.49,0.03 -0.65,-0.13 -1.29,0.13 -1.93,0.06 -2.46,0.19 -4.65,-0.88 -5.12,-0.94 0.69,0.1 3.69,1.1 5.97,0.35 -4.06,0.01 -5.97,-1.05 -5.97,-1.05 l 6.15,0.88 c 0,0 -4.27,-1.2 -5.67,-2.29 -0.4,-0.32 0.52,-0.53 0.9,-0.64 0.18,-0.05 0.36,-0.04 0.54,-0.07 1.7,-0.36 1.46,-0.4 3.17,-0.5 0.21,-0.24 5.18,0.25 5.45,-0.35 0.14,-0.31 0.01,-0.41 -0.44,-0.53 -0.14,-0.04 -0.28,-0.09 -0.42,-0.14 -4.7,-1.51 -2.46,-6.84 -2.46,-6.84 0,0 -1.4,2.62 -1.43,4.52 -0.1,-1.33 0.26,-3.61 0.93,-4.82 0.65,-1.17 1.5,-2.12 2.49,-2.98 0,0 0,-0.01 0,-0.01 0.4,0.19 0.68,0.07 0.82,-0.46 0.42,0.37 0.87,0.12 1.29,-0.05 0.58,-0.24 1.16,-0.45 1.77,-0.55 0.62,-0.1 1.19,0.03 1.56,0.57 0.51,0.74 0.96,1.51 1.51,2.48 -1.07,-0.37 -1.84,-0.85 -2.66,-1.23 -0.71,-0.32 -1.39,-0.47 -2.02,0.15 -0.66,0.66 -1.11,1.37 -0.57,2.32 0.37,0.27 1.12,0.08 1.06,0.87 0.68,1.6 1.32,3.23 2.38,4.63 0.61,0.8 0.87,1.18 -0.12,1.37 -0.36,0.07 -0.88,0.08 -1.23,0.18 -0.35,0.1 -0.81,0.2 -0.84,0.57 -0.04,0.4 0.14,0.27 0.49,0.31 0.79,0.09 1.53,0 1.93,0 1.46,-0.26 2.18,-0.32 3.34,-0.35 1.18,-0.03 1.84,-0.2 2.85,0.24 0.52,0.22 0.99,0.53 1,1.18 0,0.56 -0.46,0.83 -0.91,1.09 z"
             id="path11"
             style="fill:#ffffff" />
        </g>
      </g>
    </g>
  </g>
</svg>
